<svg width="101" height="101" viewBox="0 0 101 101" fill="none" xmlns="http://www.w3.org/2000/svg">
<path d="M50.5 4.15498C50.5 1.86024 52.3637 -0.0177854 54.6507 0.170744C66.2709 1.12867 77.2513 6.08648 85.6779 14.2679C95.102 23.4178 100.59 35.8796 100.978 49.0092C101.366 62.1387 96.6226 74.9027 87.7548 84.5929C78.8871 94.2831 66.5927 100.137 53.4803 100.912C40.368 101.687 27.4695 97.3228 17.5218 88.7451C7.57406 80.1673 1.35996 68.051 0.198 54.9673C-0.963955 41.8835 3.01768 28.8618 11.2981 18.6652C18.7019 9.54789 29.0217 3.33083 40.4481 1.0104C42.6969 0.553712 44.7689 2.19906 45.0393 4.47781C45.3097 6.75656 43.6745 8.80249 41.4334 9.29555C32.1538 11.3372 23.7897 16.465 17.7489 23.9037C10.8311 32.4224 7.50463 43.3013 8.47539 54.2321C9.44614 65.1629 14.6377 75.2854 22.9485 82.4517C31.2592 89.618 42.0352 93.2641 52.9899 92.6165C63.9446 91.9689 74.2159 87.0784 81.6244 78.9828C89.0329 70.8872 92.9956 60.2235 92.6716 49.2545C92.3477 38.2855 87.7626 27.8743 79.8892 20.23C73.014 13.5549 64.104 9.44827 54.6484 8.51429C52.3648 8.28872 50.5 6.44971 50.5 4.15498Z" fill="#00CC66"/>
</svg>
