<svg width="45" height="41" viewBox="0 0 45 41" fill="none" xmlns="http://www.w3.org/2000/svg">
<g clip-path="url(#clip0_655_7013)">
<path d="M45.0363 7.1958V37.6243C45.0366 38.0375 44.9573 38.4467 44.8032 38.8285C44.6491 39.2103 44.4231 39.5573 44.1381 39.8497C43.853 40.142 43.5146 40.3739 43.1421 40.5323C42.7696 40.6906 42.3703 40.7722 41.967 40.7724H3.04135C2.22717 40.7729 1.44614 40.442 0.869963 39.8526C0.293786 39.2633 -0.0303737 38.4635 -0.03125 37.6293V7.1958H45.0363Z" fill="#E1E1E1"/>
<path d="M3.04165 0.891602H41.9657C42.7796 0.891601 43.5602 1.22264 44.136 1.81199C44.7118 2.40134 45.0358 3.20079 45.0366 4.0347V7.19643H-0.0292964V4.03978C-0.0295135 3.62658 0.0497039 3.21738 0.203833 2.83554C0.357962 2.45371 0.583984 2.10672 0.868995 1.81438C1.15401 1.52205 1.49242 1.29009 1.86492 1.13176C2.23743 0.97343 2.63672 0.891824 3.04 0.891602L3.04165 0.891602Z" fill="#C2C2C2"/>
<path d="M41.9657 0.891602H3.04165C2.22771 0.894283 1.44787 1.22688 0.872471 1.81675C0.297075 2.40661 -0.0271177 3.20581 -0.0292969 4.03978V4.29042C-0.0245078 3.45821 0.300837 2.66161 0.875951 2.07394C1.45107 1.48626 2.22942 1.15506 3.04165 1.1524H41.9657C42.7796 1.15508 43.5595 1.48768 44.1349 2.07754C44.7103 2.66741 45.0345 3.46661 45.0366 4.30058V4.04994C45.0371 3.21421 44.714 2.41241 44.1384 1.82035C43.5627 1.22829 42.7813 0.894292 41.9657 0.891602V0.891602Z" fill="white" fill-opacity="0.2"/>
<path d="M-0.0292969 7.1958H45.0366V7.44644H-0.0292969V7.1958Z" fill="#212121" fill-opacity="0.1"/>
<path d="M22.489 16.634C20.3402 16.634 18.2124 17.0677 16.2271 17.9102C14.2419 18.7528 12.438 19.9877 10.9186 21.5445C7.84995 24.6886 6.126 28.953 6.126 33.3995V33.4215C6.126 33.7737 6.10617 34.2072 6.126 34.4714H13.2745C13.2552 34.1217 13.2552 33.7712 13.2745 33.4215C13.2769 31.7411 13.7164 30.0918 14.5479 28.6434C15.3794 27.195 16.5728 25.9999 18.005 25.1813C19.4373 24.3627 21.0567 23.9501 22.6963 23.986C24.336 24.022 25.9367 24.5052 27.3334 25.3859L32.477 20.1158C29.6154 17.8535 26.1018 16.6283 22.4873 16.6323L22.489 16.634Z" fill="#4285F4"/>
<path d="M32.477 20.1055L27.3301 25.379C28.6706 26.2229 29.7778 27.4044 30.5463 28.811C31.3147 30.2177 31.7188 31.8025 31.72 33.4145C31.7393 33.7642 31.7393 34.1148 31.72 34.4645H38.8916C38.9114 34.2138 38.8916 33.7668 38.8916 33.4145C38.8913 30.8404 38.3126 28.301 37.2002 25.993C36.0878 23.685 34.4716 21.6705 32.477 20.1055Z" fill="#F44336"/>
<path d="M4.06577 5.08917C4.63172 5.08917 5.09052 4.61909 5.09052 4.03921C5.09052 3.45934 4.63172 2.98926 4.06577 2.98926C3.49981 2.98926 3.04102 3.45934 3.04102 4.03921C3.04102 4.61909 3.49981 5.08917 4.06577 5.08917Z" fill="#EEEEEE"/>
<path d="M8.16538 5.08917C8.73133 5.08917 9.19013 4.61909 9.19013 4.03921C9.19013 3.45934 8.73133 2.98926 8.16538 2.98926C7.59942 2.98926 7.14062 3.45934 7.14062 4.03921C7.14062 4.61909 7.59942 5.08917 8.16538 5.08917Z" fill="#EEEEEE"/>
<path d="M41.9705 40.5066H3.03159C2.21735 40.5043 1.43709 40.1719 0.861338 39.582C0.285586 38.9921 -0.0388344 38.1927 -0.0410156 37.3584L-0.0410156 37.609C-0.0388344 38.4433 0.285586 39.2428 0.861338 39.8327C1.43709 40.4226 2.21735 40.755 3.03159 40.7572H41.9705C42.7836 40.7532 43.5622 40.42 44.1365 39.8303C44.7108 39.2406 45.0343 38.4421 45.0365 37.609V37.3584C45.0343 38.1915 44.7108 38.9899 44.1365 39.5797C43.5622 40.1694 42.7836 40.5026 41.9705 40.5066Z" fill="#212121" fill-opacity="0.1"/>
<path d="M32.5216 20.7436C32.5852 20.6547 32.6193 20.5473 32.6191 20.4371C32.6187 20.298 32.5645 20.1647 32.4685 20.0664C32.3725 19.968 32.2425 19.9126 32.1067 19.9121C31.9916 19.9118 31.88 19.9525 31.791 20.0273L20.6245 28.8334C20.2671 29.1155 19.9747 29.4749 19.7682 29.886C19.5617 30.2971 19.4461 30.7497 19.4298 31.2118C19.4134 31.6738 19.4966 32.1338 19.6734 32.5592C19.8503 32.9845 20.1164 33.3647 20.453 33.6727C20.7895 33.9807 21.1882 34.2089 21.6206 34.3411C22.053 34.4733 22.5085 34.5062 22.9547 34.4376C23.4009 34.3689 23.8269 34.2004 24.2023 33.9439C24.5778 33.6874 24.8934 33.3493 25.1268 32.9536L32.5199 20.7436H32.5216Z" fill="#9E9E9E"/>
<path opacity="0.2" d="M20.6247 29.0995L31.7912 20.2934C31.8569 20.2387 31.935 20.2019 32.0183 20.1863C32.1017 20.1707 32.1875 20.1768 32.2678 20.2041C32.3482 20.2315 32.4206 20.2791 32.4782 20.3427C32.5359 20.4062 32.577 20.4837 32.5978 20.5678C32.6097 20.5271 32.6163 20.4849 32.6176 20.4425C32.6172 20.3034 32.563 20.1701 32.467 20.0717C32.371 19.9734 32.241 19.9179 32.1052 19.9175C31.9901 19.9172 31.8785 19.9579 31.7895 20.0326L20.6263 28.8387C20.2535 29.1319 19.9517 29.5091 19.7441 29.9411C19.5366 30.3731 19.429 30.8483 19.4297 31.3298V31.4704C19.447 31.0096 19.5631 30.5584 19.7696 30.1487C19.9761 29.7389 20.268 29.3808 20.6247 29.0995Z" fill="white"/>
<path opacity="0.2" d="M32.5216 20.7442L25.1301 32.961C24.7889 33.5376 24.2758 33.9866 23.6665 34.2416C23.0572 34.4967 22.3841 34.5443 21.7464 34.3775C21.1087 34.2107 20.5402 33.8383 20.1248 33.3152C19.7094 32.7921 19.4692 32.1461 19.4395 31.4724V31.5927C19.4385 32.2803 19.6574 32.9493 20.0626 33.4973C20.4679 34.0454 21.0372 34.4424 21.6835 34.6275C22.3298 34.8127 23.0176 34.7758 23.6415 34.5225C24.2654 34.2693 24.7912 33.8136 25.1384 33.2252L32.5298 21.0084C32.5934 20.9195 32.6276 20.8121 32.6273 20.7019C32.6273 20.656 32.6206 20.6103 32.6075 20.5664C32.5895 20.6305 32.5604 20.6907 32.5216 20.7442Z" fill="#212121"/>
<path d="M32.5172 20.1206C32.5835 20.2103 32.6193 20.3197 32.6193 20.4322C32.6193 20.5447 32.5835 20.6541 32.5172 20.7438L25.1258 32.9606C24.8945 33.3498 24.5835 33.6829 24.2141 33.9368C23.8448 34.1907 23.426 34.3594 22.9868 34.431C22.5476 34.5027 22.0984 34.4757 21.6704 34.3519C21.2423 34.2282 20.8457 34.0105 20.5078 33.7142L27.3869 40.7624H41.9632C42.3666 40.7631 42.7662 40.6823 43.1391 40.5247C43.5121 40.3671 43.851 40.1357 44.1367 39.8438C44.4223 39.552 44.649 39.2053 44.8039 38.8236C44.9587 38.4419 45.0386 38.0327 45.0391 37.6193V32.9538L32.5172 20.1206Z" fill="url(#paint0_linear_655_7013)"/>
<path d="M45.0366 4.03978C45.0369 3.62658 44.9576 3.21738 44.8035 2.83554C44.6494 2.45371 44.4234 2.10672 44.1383 1.81438C43.8533 1.52205 43.5149 1.29009 43.1424 1.13176C42.7699 0.97343 42.3706 0.891824 41.9673 0.891602H3.04165C2.63837 0.891602 2.23904 0.972988 1.86645 1.13111C1.49387 1.28924 1.15533 1.52101 0.870164 1.81319C0.585 2.10536 0.358795 2.45223 0.204466 2.83398C0.050136 3.21573 -0.0292964 3.62488 -0.0292964 4.03809V37.6198C-0.0295135 38.033 0.049704 38.4422 0.203833 38.824C0.357962 39.2059 0.583984 39.5528 0.868995 39.8452C1.15401 40.1375 1.49242 40.3695 1.86492 40.5278C2.23743 40.6861 2.63672 40.7677 3.04 40.768H41.9657C42.7793 40.768 43.5597 40.4372 44.1354 39.8482C44.7112 39.2592 45.0353 38.4602 45.0366 37.6266V4.03978Z" fill="url(#paint1_radial_655_7013)"/>
</g>
<defs>
<linearGradient id="paint0_linear_655_7013" x1="27.0447" y1="27.4635" x2="42.0301" y2="42.0892" gradientUnits="userSpaceOnUse">
<stop stop-color="#212121" stop-opacity="0.2"/>
<stop offset="1" stop-color="#212121" stop-opacity="0"/>
</linearGradient>
<radialGradient id="paint1_radial_655_7013" cx="0" cy="0" r="1" gradientUnits="userSpaceOnUse" gradientTransform="translate(1.0814 1.59185) scale(56.2275 57.6105)">
<stop stop-color="white" stop-opacity="0.1"/>
<stop offset="1" stop-color="white" stop-opacity="0"/>
</radialGradient>
<clipPath id="clip0_655_7013">
<rect width="45" height="40" fill="white" transform="translate(0 0.890625)"/>
</clipPath>
</defs>
</svg>
