<svg width="28" height="28" viewBox="0 0 28 28" fill="none" xmlns="http://www.w3.org/2000/svg">
<path d="M25.9336 0.000976562H2.06698C1.51879 0.000976562 0.993041 0.218748 0.605406 0.606383C0.217771 0.994017 0 1.51976 0 2.06796V25.9345C0 26.4827 0.217771 27.0085 0.605406 27.3961C0.993041 27.7837 1.51879 28.0015 2.06698 28.0015H25.9336C26.4818 28.0015 27.0075 27.7837 27.3951 27.3961C27.7828 27.0085 28.0005 26.4827 28.0005 25.9345V2.06796C28.0005 1.51976 27.7828 0.994017 27.3951 0.606383C27.0075 0.218748 26.4818 0.000976562 25.9336 0.000976562ZM8.34572 23.8539H4.13591V10.4817H8.34572V23.8539ZM6.2379 8.62864C5.76037 8.62595 5.29434 8.48187 4.89862 8.21457C4.5029 7.94727 4.19523 7.56874 4.01443 7.12675C3.83364 6.68476 3.78783 6.19912 3.88278 5.73112C3.97773 5.26311 4.20918 4.83373 4.54794 4.49714C4.88669 4.16056 5.31755 3.93186 5.78616 3.83992C6.25476 3.74798 6.7401 3.79691 7.18092 3.98054C7.62174 4.16416 7.99828 4.47426 8.26304 4.87169C8.52779 5.26911 8.66888 5.73606 8.6685 6.2136C8.67301 6.53331 8.6131 6.85065 8.49234 7.14672C8.37159 7.44278 8.19247 7.71151 7.96565 7.93687C7.73884 8.16224 7.46897 8.33963 7.17213 8.45848C6.8753 8.57733 6.55757 8.6352 6.2379 8.62864ZM23.8627 23.8656H19.6548V16.5602C19.6548 14.4057 18.739 13.7407 17.5567 13.7407C16.3084 13.7407 15.0833 14.6818 15.0833 16.6146V23.8656H10.8735V10.4915H14.922V12.3445H14.9764C15.3828 11.522 16.8062 10.1162 18.9781 10.1162C21.3271 10.1162 23.8646 11.5104 23.8646 15.5938L23.8627 23.8656Z" fill="#0A66C2"/>
</svg>
