<svg width="11" height="14" viewBox="0 0 11 14" fill="none" xmlns="http://www.w3.org/2000/svg">
    <path fill-rule="evenodd" clip-rule="evenodd" d="M3.33741 2.35775C3.26306 2.47442 3.20473 2.67156 3.20473 2.90758V8.94235C3.20473 9.12018 3.13721 9.29073 3.01701 9.41648C2.8968 9.54223 2.73378 9.61287 2.56379 9.61287C2.3938 9.61287 2.23077 9.54223 2.11057 9.41648C1.99037 9.29073 1.92284 9.12018 1.92284 8.94235V6.93076C1.92284 6.69473 1.86516 6.4976 1.79016 6.38092C1.72863 6.2837 1.67479 6.26023 1.60237 6.26023C1.53058 6.26023 1.4761 6.2837 1.41457 6.38092C1.34022 6.4976 1.28189 6.69473 1.28189 6.93076V9.61287C1.28189 10.3055 1.73056 11.0478 2.59904 11.6533C3.45278 12.2494 4.61097 12.6303 5.76852 12.6303C8.11952 12.6303 9.6142 11.1222 9.6142 9.61287V6.93076C9.6142 6.69473 9.55652 6.4976 9.48153 6.38092C9.42 6.2837 9.36616 6.26023 9.29373 6.26023C9.22194 6.26023 9.16746 6.2837 9.10593 6.38092C9.03158 6.4976 8.97326 6.69473 8.97326 6.93076C8.97326 7.10859 8.90573 7.27915 8.78553 7.40489C8.66533 7.53064 8.5023 7.60129 8.33231 7.60129C8.16232 7.60129 7.99929 7.53064 7.87909 7.40489C7.75889 7.27915 7.69136 7.10859 7.69136 6.93076V6.26023C7.69136 6.0242 7.63368 5.82707 7.55869 5.7104C7.49716 5.61317 7.44332 5.5897 7.37089 5.5897C7.2991 5.5897 7.24462 5.61317 7.18309 5.7104C7.10874 5.82707 7.05042 6.0242 7.05042 6.26023V6.59549C7.05042 6.77333 6.98289 6.94388 6.86269 7.06963C6.74249 7.19538 6.57946 7.26602 6.40947 7.26602C6.23948 7.26602 6.07645 7.19538 5.95625 7.06963C5.83605 6.94388 5.76852 6.77333 5.76852 6.59549V5.92496C5.76852 5.68894 5.71084 5.4918 5.63585 5.37513C5.57432 5.2779 5.52048 5.25444 5.44805 5.25444C5.37626 5.25444 5.32178 5.2779 5.26025 5.37513C5.1859 5.4918 5.12758 5.68894 5.12758 5.92496V6.26023C5.12758 6.43806 5.06005 6.60862 4.93985 6.73436C4.81965 6.86011 4.65662 6.93076 4.48663 6.93076C4.31664 6.93076 4.15361 6.86011 4.03341 6.73436C3.91321 6.60862 3.84568 6.43806 3.84568 6.26023V2.90758C3.84568 2.67156 3.788 2.47442 3.71301 2.35775C3.65147 2.26052 3.59764 2.23705 3.52521 2.23705C3.45342 2.23705 3.39894 2.26052 3.33741 2.35775ZM5.12758 3.94824V2.90758C5.12758 2.47308 5.02502 1.99969 4.77954 1.61346C4.5206 1.20779 4.09373 0.895996 3.52521 0.895996C2.95605 0.895996 2.52982 1.20779 2.27087 1.61346C2.02475 1.99969 1.92284 2.47308 1.92284 2.90758V4.95404C1.81749 4.93062 1.71007 4.91894 1.60237 4.91917C1.03321 4.91917 0.606977 5.23097 0.348034 5.63664C0.101911 6.02286 0 6.49626 0 6.93076V9.61287C0 10.9318 0.833231 12.0335 1.88759 12.7691C2.95605 13.514 4.36228 13.9713 5.76852 13.9713C8.5451 13.9713 10.8961 12.1267 10.8961 9.61287V6.93076C10.8961 6.49626 10.7935 6.02286 10.5481 5.63664C10.2891 5.23097 9.86225 4.91917 9.29373 4.91917C9.08159 4.91771 8.87167 4.96438 8.67842 5.05596C8.66148 5.02551 8.64373 4.99555 8.62522 4.96611C8.36628 4.56044 7.93941 4.24864 7.37089 4.24864C7.07029 4.24864 6.80942 4.33581 6.59278 4.47662C6.45443 4.29909 6.27976 4.15632 6.08163 4.05883C5.88351 3.96135 5.66699 3.91164 5.44805 3.91338C5.33588 3.91338 5.22885 3.92545 5.12758 3.94824Z" fill="#737373"/>
</svg>
