<svg width="200" height="237" viewBox="0 0 200 237" fill="none" xmlns="http://www.w3.org/2000/svg">
<g filter="url(#filter0_i_1411_7273)">
<path d="M200 70.2118V0L0 166V237L200 70.2118Z" fill="white"/>
</g>
<path d="M36.8022 185.455C36.3145 185.325 35.8765 185.002 35.4881 184.486C35.0997 183.97 35.0387 183.297 35.3052 182.468C35.4802 181.943 35.7899 181.535 36.2344 181.244C36.6601 180.93 37.224 180.807 37.9261 180.874C39.1237 180.988 40.2338 180.927 41.2563 180.691C42.2789 180.455 43.333 179.889 44.4185 178.992C44.739 178.689 45.0748 178.336 45.4258 177.931C45.7582 177.505 45.9593 177.034 46.0291 176.52C46.1028 175.964 45.8968 175.393 45.4111 174.805C45.0001 174.307 44.5035 174.051 43.9215 174.038C43.3394 174.024 42.6816 174.149 41.9481 174.412C41.2372 174.657 40.4678 174.969 39.6399 175.349C38.7707 175.724 37.8602 176.096 36.9084 176.464C35.9792 176.813 35.0505 177.047 34.1223 177.167C33.1755 177.265 32.2389 177.144 31.3127 176.806C30.3865 176.468 29.5123 175.801 28.6903 174.806C27.7562 173.675 27.2789 172.453 27.2582 171.138C27.2376 169.823 27.5473 168.54 28.1874 167.289C28.8501 166.018 29.7355 164.925 30.8436 164.01C31.5447 163.431 32.3544 162.914 33.2728 162.46C34.1725 161.983 35.1316 161.647 36.1503 161.453C37.1502 161.235 38.1399 161.236 39.1192 161.454C39.6482 161.588 40.1315 161.873 40.569 162.311C41.0066 162.748 41.1467 163.356 40.9894 164.132C40.8743 164.684 40.5813 165.135 40.1103 165.486C39.6207 165.815 39.1168 165.965 38.5986 165.936C37.8031 165.756 36.9561 165.79 36.0574 166.038C35.1813 166.267 34.3249 166.727 33.4881 167.418C33.1489 167.699 32.8131 168.052 32.4808 168.479C32.1524 168.864 31.9533 169.314 31.8834 169.828C31.795 170.32 31.9842 170.849 32.4513 171.414C32.881 171.934 33.3962 172.212 33.997 172.249C34.579 172.262 35.2368 172.138 35.9704 171.874C36.7078 171.569 37.4792 171.236 38.2844 170.876C39.1123 170.496 39.9796 170.141 40.8861 169.811C41.7927 169.48 42.7081 169.276 43.6324 169.197C44.5566 169.118 45.4706 169.258 46.3742 169.615C47.2591 169.949 48.1126 170.614 48.9346 171.609C49.8874 172.762 50.3608 174.026 50.3549 175.4C50.349 176.775 50.0147 178.098 49.352 179.368C48.6706 180.616 47.7984 181.679 46.7355 182.557C45.4013 183.659 43.8802 184.535 42.1723 185.185C40.4457 185.812 38.6556 185.902 36.8022 185.455ZM50.8043 147.521C52.6134 146.026 54.312 145.365 55.9 145.537C57.4693 145.686 58.9594 146.339 60.3704 147.494L59.5415 147.665L59.3645 146.898C59.2062 146.154 59.1668 145.254 59.2465 144.199C59.3074 143.122 59.5655 142.052 60.0208 140.991C60.48 139.889 61.2071 138.927 62.2021 138.105C63.8304 136.76 65.3525 136.092 66.7684 136.102C68.2069 136.093 69.5702 136.546 70.8582 137.461C72.1276 138.352 73.3508 139.511 74.5277 140.935L81.7016 149.619C82.1873 150.207 82.4061 150.864 82.3579 151.588C82.2911 152.29 81.9636 152.884 81.3756 153.37C80.7877 153.856 80.1426 154.065 79.4406 153.998C78.7199 153.909 78.1166 153.57 77.6309 152.982L70.4571 144.298C69.8406 143.552 69.199 142.959 68.5323 142.521C67.847 142.06 67.1174 141.844 66.3436 141.875C65.5698 141.905 64.7419 142.285 63.8599 143.013C63.0006 143.723 62.415 144.511 62.1033 145.378C61.7916 146.244 61.7297 147.113 61.9175 147.985C62.1092 148.816 62.5134 149.605 63.1299 150.351L70.3037 159.035C70.7894 159.623 71.0082 160.279 70.96 161.004C70.8932 161.706 70.5657 162.3 69.9778 162.786C69.3898 163.271 68.7448 163.481 68.0427 163.414C67.322 163.325 66.7188 162.986 66.233 162.398L59.0592 153.714C58.4427 152.967 57.8011 152.375 57.1345 151.937C56.4491 151.475 55.7196 151.26 54.9457 151.291C54.1719 151.321 53.344 151.701 52.462 152.429C51.6027 153.139 51.0171 153.927 50.7055 154.793C50.3938 155.66 50.3318 156.529 50.5196 157.401C50.7114 158.232 51.1155 159.02 51.732 159.767L58.9058 168.451C59.3916 169.039 59.6103 169.695 59.5621 170.42C59.4953 171.122 59.1679 171.716 58.5799 172.201C57.9919 172.687 57.3469 172.897 56.6448 172.83C55.9241 172.74 55.3209 172.402 54.8351 171.814L43.2617 157.804C42.776 157.216 42.5666 156.571 42.6334 155.869C42.6816 155.144 42.9997 154.539 43.5877 154.053C44.1756 153.567 44.83 153.369 45.5507 153.459C46.2528 153.525 46.8467 153.853 47.3324 154.441L48.5374 155.9L47.9445 156.218C47.8304 155.666 47.7768 155.025 47.7837 154.296C47.7719 153.545 47.8673 152.762 48.0698 151.948C48.2724 151.134 48.5969 150.353 49.0432 149.603C49.471 148.831 50.058 148.137 50.8043 147.521ZM87.4022 117.288C87.9901 116.802 88.6352 116.592 89.3372 116.659C90.0392 116.726 90.6425 117.065 91.1469 117.675L103.001 132.025C103.486 132.613 103.705 133.269 103.657 133.994C103.59 134.696 103.263 135.29 102.675 135.775C102.087 136.261 101.442 136.47 100.74 136.404C100.019 136.314 99.4156 135.975 98.9299 135.387L97.5567 133.725L98.5552 133.414C98.7981 133.708 98.9387 134.201 98.9771 134.892C98.9967 135.56 98.9033 136.322 98.6968 137.178C98.4904 138.033 98.1354 138.916 97.632 139.827C97.1325 140.696 96.4531 141.486 95.5937 142.195C94.0333 143.484 92.2929 144.256 90.3726 144.511C88.4336 144.743 86.5119 144.466 84.6073 143.681C82.7067 142.854 80.9997 141.524 79.4865 139.693C77.9546 137.838 76.9713 135.911 76.5367 133.911C76.106 131.87 76.1857 129.94 76.7756 128.121C77.3469 126.279 78.3901 124.732 79.9053 123.481C80.8778 122.677 81.8925 122.086 82.9495 121.708C84.0065 121.329 85.0158 121.123 85.9774 121.09C86.9617 121.038 87.8082 121.118 88.5172 121.332C89.23 121.504 89.7172 121.748 89.9788 122.065L89.1219 123.515L87.0762 121.038C86.5905 120.45 86.381 119.805 86.4479 119.103C86.4961 118.379 86.8142 117.773 87.4022 117.288ZM93.02 138.044C94.0151 137.222 94.6802 136.254 95.0155 135.14C95.3508 134.026 95.367 132.871 95.0642 131.675C94.784 130.461 94.2048 129.322 93.3268 128.259C92.43 127.174 91.4119 126.379 90.2723 125.874C89.1553 125.351 88.0182 125.149 86.8609 125.268C85.7036 125.387 84.6274 125.858 83.6324 126.68C82.6599 127.483 82.0061 128.442 81.6708 129.556C81.3355 130.67 81.308 131.834 81.5882 133.048C81.891 134.244 82.4908 135.384 83.3875 136.47C84.2656 137.533 85.2631 138.326 86.3801 138.849C87.5197 139.353 88.6681 139.546 89.8254 139.427C90.9827 139.308 92.0476 138.847 93.02 138.044ZM111.153 128.772C110.565 129.257 109.92 129.467 109.218 129.4C108.497 129.31 107.894 128.972 107.408 128.384L95.8346 114.374C95.3489 113.786 95.1395 113.141 95.2063 112.439C95.2545 111.714 95.5726 111.109 96.1606 110.623C96.7485 110.137 97.4029 109.939 98.1236 110.029C98.8257 110.096 99.4196 110.423 99.9053 111.011L102.539 114.2L100.424 112.123C100.225 111.375 100.149 110.638 100.197 109.914C100.249 109.148 100.412 108.424 100.686 107.741C100.94 107.036 101.294 106.382 101.747 105.78C102.201 105.177 102.71 104.642 103.275 104.175C103.954 103.614 104.678 103.34 105.448 103.35C106.24 103.343 106.851 103.599 107.281 104.119C107.898 104.865 108.154 105.567 108.05 106.223C107.927 106.858 107.639 107.362 107.187 107.735C106.757 108.09 106.296 108.338 105.803 108.479C105.333 108.601 104.872 108.848 104.42 109.222C104.013 109.558 103.679 110.006 103.417 110.564C103.159 111.081 103.018 111.693 102.992 112.399C102.989 113.086 103.127 113.828 103.405 114.626C103.687 115.382 104.165 116.167 104.837 116.981L111.479 125.021C111.964 125.609 112.183 126.265 112.135 126.99C112.068 127.692 111.741 128.286 111.153 128.772ZM109.317 100.325L117.357 93.6836C117.9 93.2352 118.502 93.0425 119.162 93.1054C119.823 93.1684 120.378 93.4712 120.826 94.014C121.256 94.5341 121.439 95.1246 121.376 95.7853C121.295 96.4234 120.982 96.9667 120.44 97.4151L112.4 104.056C111.857 104.505 111.255 104.698 110.595 104.635C109.934 104.572 109.379 104.269 108.931 103.726C108.501 103.206 108.327 102.627 108.409 101.989C108.472 101.328 108.775 100.773 109.317 100.325ZM109.444 93.0863C110.032 92.6006 110.675 92.4118 111.373 92.5199C112.075 92.5868 112.669 92.9142 113.155 93.5022L125.625 108.598C125.887 108.914 126.158 109.128 126.439 109.238C126.743 109.329 127.034 109.336 127.313 109.258C127.613 109.162 127.888 109.011 128.137 108.806C128.408 108.581 128.62 108.331 128.771 108.053C128.904 107.753 129.117 107.482 129.411 107.239C129.728 106.978 130.132 106.891 130.624 106.98C131.138 107.049 131.61 107.344 132.04 107.865C132.563 108.498 132.642 109.308 132.277 110.294C131.935 111.261 131.368 112.072 130.576 112.726C130.102 113.118 129.542 113.523 128.898 113.941C128.258 114.318 127.556 114.574 126.793 114.71C126.034 114.804 125.224 114.675 124.361 114.322C123.499 113.969 122.61 113.238 121.695 112.13L109.084 96.8649C108.599 96.277 108.389 95.6319 108.456 94.9299C108.527 94.1866 108.856 93.572 109.444 93.0863ZM132.345 97.1681C131.757 97.6539 131.101 97.8726 130.376 97.8245C129.674 97.7576 129.08 97.4302 128.594 96.8422C128.109 96.2542 127.909 95.6205 127.994 94.9411C128.084 94.2203 128.422 93.6171 129.01 93.1314L134.913 88.2554C135.501 87.7697 136.155 87.5715 136.876 87.661C137.601 87.7092 138.206 88.0273 138.691 88.6153C139.158 89.1806 139.347 89.8237 139.258 90.5444C139.172 91.2238 138.835 91.8064 138.247 92.2922L132.345 97.1681ZM149.631 66.4519C150.219 65.9661 150.873 65.768 151.594 65.8575C152.296 65.9244 152.89 66.2518 153.376 66.8398L160.493 75.456C162.474 77.8532 163.376 80.304 163.2 82.8083C163.024 85.3127 161.681 87.6017 159.17 89.6754C156.66 91.7491 154.159 92.636 151.666 92.3361C149.196 92.0175 146.971 90.6596 144.991 88.2625L137.873 79.6462C137.387 79.0582 137.178 78.4132 137.245 77.7112C137.293 76.9865 137.611 76.3813 138.199 75.8956C138.787 75.4098 139.441 75.2117 140.162 75.3012C140.864 75.368 141.458 75.6955 141.944 76.2835L149.062 84.8997C150.201 86.2792 151.356 87.056 152.528 87.23C153.68 87.3814 154.867 86.9527 156.088 85.9439C157.332 84.9164 157.988 83.8225 158.057 82.6623C158.107 81.4794 157.562 80.1983 156.423 78.8188L149.305 70.2025C148.819 69.6145 148.61 68.9695 148.677 68.2675C148.725 67.5428 149.043 66.9376 149.631 66.4519ZM173.189 74.0425C173.675 74.6305 173.894 75.2868 173.846 76.0115C173.779 76.7135 173.451 77.3074 172.863 77.7932C172.275 78.2789 171.63 78.4883 170.928 78.4215C170.207 78.332 169.604 77.9932 169.119 77.4053L157.545 63.3954C157.059 62.8074 156.85 62.1624 156.917 61.4603C156.965 60.7357 157.283 60.1305 157.871 59.6447C158.459 59.159 159.113 58.9609 159.834 59.0504C160.536 59.1172 161.13 59.4446 161.616 60.0326L173.189 74.0425ZM156.016 57.4678C155.247 58.103 154.601 58.427 154.079 58.4398C153.557 58.4525 153.034 58.1423 152.511 57.5091L151.979 56.8646C151.437 56.2088 151.242 55.6277 151.395 55.1213C151.551 54.5736 151.991 54.0009 152.715 53.403C153.506 52.7492 154.163 52.4158 154.685 52.4031C155.207 52.3903 155.73 52.7005 156.253 53.3337L156.785 53.9782C157.327 54.6341 157.531 55.2265 157.398 55.7555C157.245 56.2618 156.785 56.8326 156.016 57.4678Z" fill="url(#paint0_linear_1411_7273)"/>
<defs>
<filter id="filter0_i_1411_7273" x="0" y="0" width="203" height="240" filterUnits="userSpaceOnUse" color-interpolation-filters="sRGB">
<feFlood flood-opacity="0" result="BackgroundImageFix"/>
<feBlend mode="normal" in="SourceGraphic" in2="BackgroundImageFix" result="shape"/>
<feColorMatrix in="SourceAlpha" type="matrix" values="0 0 0 0 0 0 0 0 0 0 0 0 0 0 0 0 0 0 127 0" result="hardAlpha"/>
<feOffset dx="3" dy="3"/>
<feGaussianBlur stdDeviation="3"/>
<feComposite in2="hardAlpha" operator="arithmetic" k2="-1" k3="1"/>
<feColorMatrix type="matrix" values="0 0 0 0 0 0 0 0 0 0 0 0 0 0 0 0 0 0 0.1 0"/>
<feBlend mode="normal" in2="shape" result="effect1_innerShadow_1411_7273"/>
</filter>
<linearGradient id="paint0_linear_1411_7273" x1="69.7529" y1="118.871" x2="105.502" y2="139.829" gradientUnits="userSpaceOnUse">
<stop stop-color="#28B674"/>
<stop offset="1" stop-color="#8CC641"/>
</linearGradient>
</defs>
</svg>
