<svg width="32" height="25" viewBox="0 0 32 25" fill="none" xmlns="http://www.w3.org/2000/svg">
<path d="M12.5835 18.1985C12.5835 17.3407 12.2772 16.6722 11.6644 16.1931C11.0628 15.7141 9.99886 15.2183 8.47257 14.7059C6.94628 14.1934 5.69851 13.6976 4.72927 13.2186C1.57642 11.67 -7.10016e-07 9.54209 0 6.83488C3.53547e-07 5.48684 0.389928 4.30034 1.16978 3.27539C1.96078 2.2393 3.07486 1.43716 4.51202 0.868981C5.94919 0.28966 7.5646 -4.70422e-07 9.35827 0C11.1074 4.58735e-07 12.6727 0.311943 14.0541 0.935828C14.7328 1.23988 15.3374 1.60745 15.8679 2.03852C16.2239 1.79036 16.6071 1.56764 17.0175 1.37037C18.4547 0.679638 20.1536 0.334274 22.1144 0.334275C25.0779 0.334275 27.4119 1.10299 29.1164 2.64042C30.821 4.17785 31.6899 6.28346 31.7234 8.95725L31.7234 25L25.8243 25L25.8243 8.84027C25.7575 6.17762 24.5208 4.8463 22.1144 4.8463C20.9001 4.8463 19.981 5.18052 19.3571 5.84897C18.7332 6.51742 18.4212 7.60364 18.4212 9.10765L18.4212 13.1242C17.4507 11.954 16.1208 10.9751 14.5077 10.1825C13.9322 9.89812 13.2803 9.61447 12.5556 9.33082V9.07423C12.5556 8.54685 12.5884 8.03993 12.6541 7.55346H12.6002C12.6002 6.56193 12.2939 5.79321 11.6811 5.24732C11.0795 4.70142 10.2607 4.42847 9.22458 4.42847C8.17735 4.42847 7.34736 4.66242 6.73461 5.13034C6.13301 5.58711 5.83221 6.172 5.83221 6.88501C5.83221 7.5089 6.16643 8.07708 6.83488 8.58955C7.50333 9.09089 8.67868 9.61451 10.3609 10.1604C12.0432 10.6952 13.4247 11.2745 14.5053 11.8984C17.1345 13.4135 18.4492 15.5024 18.4492 18.1651C18.4492 20.293 17.647 21.9641 16.0427 23.1784C14.4385 24.3928 12.2382 24.9999 9.44182 24.9999L9.44182 20.5882C10.4111 20.5882 11.1742 20.3821 11.7313 19.9699C12.2994 19.5465 12.5835 18.9561 12.5835 18.1985Z" fill="url(#paint0_linear_1276_5095)"/>
<defs>
<linearGradient id="paint0_linear_1276_5095" x1="1.70454" y1="12.5" x2="28.4091" y2="12.5" gradientUnits="userSpaceOnUse">
<stop stop-color="#3BB969"/>
<stop offset="1" stop-color="#8CC641"/>
</linearGradient>
</defs>
</svg>
