<svg width="129" height="37" viewBox="0 0 129 37" fill="none" xmlns="http://www.w3.org/2000/svg">
<path fill-rule="evenodd" clip-rule="evenodd" d="M33.6063 17.8417V35.6833H36.2597H38.9132V17.8417V0H36.2597H33.6063V17.8417ZM107.785 0.233341C107.656 0.361381 107.549 8.39012 107.549 18.075V35.6833H110.38H113.21L113.218 28.4242C113.227 19.9057 113.518 18.7642 116 17.5125C117.785 16.6116 120.511 16.5627 121.571 17.4121C123.153 18.6788 123.277 19.3771 123.41 27.7245L123.537 35.6833H126.157H128.777V27.5024C128.777 18.2898 128.507 16.7823 126.423 14.3755C124.055 11.6401 119.902 10.5756 116.394 11.8049C115.324 12.1799 114.17 12.6064 113.829 12.7529C113.252 13.0006 113.21 12.577 113.21 6.5094V0H110.616C109.189 0 107.915 0.104951 107.785 0.233341ZM13.7938 1.44098C11.0034 1.88527 7.15305 3.86779 5.05858 5.93882C1.74353 9.21679 -0.00775765 13.6352 2.58323e-05 18.7022C0.00745552 23.8211 1.67206 27.9428 5.10139 31.3355C8.38496 34.5838 11.9512 36.0118 16.801 36.0205C21.1651 36.0282 25.7577 34.2381 28.501 31.4601L29.8628 30.0814L27.9445 28.1608L26.0266 26.2405L24.7749 27.4454C20.4288 31.628 13.2029 31.6462 8.9949 27.4852C6.56929 25.0868 5.54505 22.5088 5.51073 18.7162C5.48208 15.5075 6.18188 13.2521 7.91548 10.9656C11.8621 5.76041 19.6116 5.21781 24.8651 9.77862L26.0559 10.8127L27.9739 8.8771L29.8914 6.94145L28.2994 5.5568C26.1242 3.66523 22.2247 1.83664 19.4545 1.40949C16.8537 1.00823 16.4992 1.01033 13.7938 1.44098ZM71.7393 7.78386L71.6392 11.7195L69.6049 11.8245L67.5706 11.9294V14.3433V16.7572L69.6049 16.8621L71.6392 16.9671L71.7333 26.3252L71.8278 35.6833H74.4752H77.123V26.2377V16.7921H79.4227H81.7224V14.3601V11.9277L79.5111 11.8238L77.2999 11.7195L77.1998 7.78386L77.0997 3.8482H74.4696H71.8395L71.7393 7.78386ZM91.9824 11.6754C88.2361 12.6952 85.6598 14.6966 83.9481 17.9172C83.0558 19.5961 82.9652 20.1026 82.9631 23.439C82.961 26.6841 83.07 27.3425 83.8975 29.0882C85.0884 31.5997 87.0696 33.5588 89.7202 34.8458C91.5759 35.7466 92.1756 35.8582 95.1666 35.8582C98.1133 35.8582 98.7958 35.7358 100.704 34.864C101.901 34.3168 103.321 33.4146 103.86 32.8584C104.832 31.8557 104.834 31.8407 104.16 31.1029C103.786 30.6936 102.896 29.9002 102.182 29.3397L100.882 28.321L99.5678 29.2029C94.7873 32.4109 88.9918 29.9334 88.2177 24.3507C87.8108 21.4135 89.7224 18.2751 92.6008 17.1549C94.5442 16.3989 97.7415 16.8292 99.5518 18.0911L101.099 19.1696L102.968 17.2994C105.092 15.1717 105.079 15.0937 102.3 13.3305C99.2957 11.4239 95.2752 10.7792 91.9824 11.6754ZM43.9321 20.378C44.0369 28.3696 44.0906 28.9629 44.8584 30.6107C45.844 32.7265 47.1074 34.0968 48.9964 35.0991C51.0618 36.1948 55.809 36.1741 57.9297 35.0599C59.4107 34.2819 59.4333 34.2805 59.4333 34.9766C59.4333 35.6266 59.6597 35.6833 62.2637 35.6833H65.094V23.7889V11.8944H62.2637H59.4333L59.4326 19.1535C59.4322 25.3663 59.3431 26.5883 58.8134 27.6301C57.584 30.0499 54.305 31.3072 51.8589 30.2965C49.7294 29.417 49.527 28.4882 49.527 19.602V11.8944H46.674H43.8207L43.9321 20.378Z" fill="#17313B"/>
<ellipse cx="95.017" cy="23.7908" rx="4.24554" ry="4.19804" fill="#FF0000"/>
</svg>
