<svg width="123" height="34" viewBox="0 0 123 34" fill="none" xmlns="http://www.w3.org/2000/svg">
<path d="M47.6104 8.8768V18.5165C47.6104 19.6625 47.9078 20.5257 48.5026 21.1059C49.1119 21.6862 49.9532 21.9763 51.0267 21.9763C52.1147 21.9763 52.9561 21.6862 53.5509 21.1059C54.1602 20.5257 54.4648 19.6625 54.4648 18.5165V8.8768H56.9455V18.473C56.9455 19.706 56.6771 20.7505 56.1403 21.6064C55.6036 22.4623 54.8855 23.1006 53.9861 23.5213C53.0867 23.942 52.093 24.1523 51.005 24.1523C49.917 24.1523 48.9233 23.942 48.0239 23.5213C47.1389 23.1006 46.4354 22.4623 45.9131 21.6064C45.3909 20.7505 45.1298 19.706 45.1298 18.473V8.8768H47.6104ZM61.7855 13.7728C62.2062 13.2215 62.7792 12.7573 63.5046 12.3802C64.2299 12.003 65.0495 11.8144 65.9634 11.8144C67.0079 11.8144 67.9581 12.0755 68.814 12.5978C69.6844 13.1055 70.3662 13.8236 70.8594 14.752C71.3527 15.6804 71.5993 16.7467 71.5993 17.9507C71.5993 19.1548 71.3527 20.2355 70.8594 21.193C70.3662 22.1359 69.6844 22.8757 68.814 23.4125C67.9581 23.9347 67.0079 24.1958 65.9634 24.1958C65.0495 24.1958 64.2371 24.0145 63.5263 23.6518C62.8155 23.2747 62.2352 22.8105 61.7855 22.2592V29.7011H59.3049V12.0102H61.7855V13.7728ZM69.0751 17.9507C69.0751 17.1238 68.901 16.413 68.5529 15.8182C68.2192 15.209 67.7695 14.752 67.2038 14.4474C66.6525 14.1282 66.0577 13.9686 65.4194 13.9686C64.7957 13.9686 64.2009 14.1282 63.6351 14.4474C63.0839 14.7665 62.6342 15.2307 62.286 15.84C61.9523 16.4493 61.7855 17.1674 61.7855 17.9942C61.7855 18.8211 61.9523 19.5465 62.286 20.1702C62.6342 20.7795 63.0839 21.2437 63.6351 21.5629C64.2009 21.882 64.7957 22.0416 65.4194 22.0416C66.0577 22.0416 66.6525 21.882 67.2038 21.5629C67.7695 21.2292 68.2192 20.7505 68.5529 20.1267C68.901 19.5029 69.0751 18.7776 69.0751 17.9507ZM89.2844 12.0102L85.5634 24H82.9522L80.5369 15.1437L78.1215 24H75.5103L71.7676 12.0102H74.2917L76.7941 21.6499L79.3401 12.0102H81.9295L84.3666 21.6064L86.8473 12.0102H89.2844ZM95.4685 24.1958C94.337 24.1958 93.3142 23.942 92.4003 23.4342C91.4864 22.912 90.7683 22.1867 90.2461 21.2582C89.7238 20.3153 89.4627 19.2273 89.4627 17.9942C89.4627 16.7757 89.7311 15.6949 90.2678 14.752C90.8046 13.8091 91.5372 13.0837 92.4656 12.576C93.394 12.0683 94.4312 11.8144 95.5773 11.8144C96.7233 11.8144 97.7605 12.0683 98.689 12.576C99.6174 13.0837 100.35 13.8091 100.887 14.752C101.423 15.6949 101.692 16.7757 101.692 17.9942C101.692 19.2128 101.416 20.2935 100.865 21.2365C100.314 22.1794 99.5594 22.912 98.6019 23.4342C97.659 23.942 96.6145 24.1958 95.4685 24.1958ZM95.4685 22.0416C96.1068 22.0416 96.7015 21.8893 97.2528 21.5846C97.8186 21.28 98.2755 20.823 98.6237 20.2138C98.9718 19.6045 99.1459 18.8646 99.1459 17.9942C99.1459 17.1238 98.9791 16.3913 98.6454 15.7965C98.3118 15.1872 97.8693 14.7302 97.3181 14.4256C96.7668 14.121 96.172 13.9686 95.5338 13.9686C94.8955 13.9686 94.3007 14.121 93.7494 14.4256C93.2127 14.7302 92.7847 15.1872 92.4656 15.7965C92.1464 16.3913 91.9869 17.1238 91.9869 17.9942C91.9869 19.2853 92.3133 20.2863 92.9661 20.9971C93.6334 21.6934 94.4675 22.0416 95.4685 22.0416ZM105.754 13.751C106.117 13.1418 106.596 12.6703 107.19 12.3366C107.8 11.9885 108.518 11.8144 109.345 11.8144V14.3821H108.714C107.742 14.3821 107.002 14.6287 106.494 15.1219C106.001 15.6151 105.754 16.471 105.754 17.6896V24H103.274V12.0102H105.754V13.751ZM115.498 18.016L121.025 24H117.674L113.235 18.8429V24H110.755V7.8976H113.235V17.2544L117.587 12.0102H121.025L115.498 18.016Z" fill="#737373"/>
<g clip-path="url(#clip0_475_2763)">
<path d="M31.4885 0H2.51094C1.12374 0 -0.000976562 1.09072 -0.000976562 2.43576V31.5629C-0.000976562 32.9093 1.12374 34 2.51094 34H31.4885C32.8757 34 33.999 32.9079 33.999 31.5629V2.43576C33.999 1.09072 32.8757 0 31.4885 0V0Z" fill="#1C4253"/>
<path d="M24.9491 19.7706C23.6109 19.7706 22.3583 19.2035 21.2187 18.28L21.4961 16.9772L21.5083 16.9296C21.7559 15.5424 22.5392 13.2127 24.9491 13.2127C26.7566 13.2127 28.2267 14.6856 28.2267 16.4944C28.2213 18.2977 26.7511 19.7706 24.9491 19.7706ZM24.9491 9.88748C21.8701 9.88748 19.4833 11.8908 18.5136 15.1847C17.0312 12.9584 15.9106 10.286 15.2537 8.03516H11.9407V16.6684C11.9407 18.3698 10.5549 19.757 8.85489 19.757C7.15489 19.757 5.77041 18.3698 5.77041 16.6684V8.03516H2.45609V16.6684C2.44385 20.2044 5.31889 23.1067 8.84945 23.1067C12.38 23.1067 15.2551 20.2044 15.2551 16.6684V15.22C15.8997 16.5651 16.6885 17.9224 17.6473 19.13L15.6168 28.6868H19.01L20.4802 21.7548C21.7695 22.5817 23.2519 23.0999 24.9519 23.0999C28.5858 23.0999 31.5438 20.1188 31.5438 16.4808C31.5411 12.8496 28.5831 9.88748 24.9491 9.88748Z" fill="#6FDA44"/>
</g>
<defs>
<clipPath id="clip0_475_2763">
<rect width="34" height="34" fill="white"/>
</clipPath>
</defs>
</svg>
