<svg width="235" height="289" viewBox="0 0 235 289" fill="none" xmlns="http://www.w3.org/2000/svg">
<path d="M51.5825 161.753C55.2674 155.371 56.0339 149.182 53.882 143.187C51.8067 137.237 46.6267 129.328 38.3421 119.461C30.0574 109.594 23.6145 100.956 19.0134 93.5472C4.0045 69.5195 2.31463 47.4346 13.9438 27.2924C19.7344 17.2627 27.51 9.9816 37.2707 5.44908C47.1557 0.877856 58.2554 -0.671152 70.5698 0.802055C82.932 2.19237 95.2746 6.44488 107.598 13.5596C119.614 20.4975 129.028 29.0272 135.839 39.1487C139.196 44.103 141.771 49.2359 143.564 54.5475C147.075 54.113 150.665 53.9758 154.332 54.1362C167.173 54.6976 180.329 58.8671 193.8 66.6446C214.16 78.3994 226.893 93.3767 231.999 111.577C237.106 129.777 234.031 148.89 222.775 168.916L153.862 288.277L113.334 264.878L182.75 144.647C193.728 124.571 190.951 109.76 174.418 100.215C166.075 95.3983 158.325 94.2392 151.167 96.7379C144.01 99.2367 137.201 106.081 130.74 117.271L113.486 147.155C111.845 134.599 106.914 122.04 99.2355 109.745C96.5032 105.346 93.2431 100.65 89.4828 95.6653L90.585 93.7562C92.8504 89.8324 95.2534 86.191 97.794 82.8319L97.4242 82.6184C101.683 75.2412 102.881 68.3065 101.016 61.8144C99.2277 55.3665 94.7744 50.0877 87.6562 45.978C80.4614 41.8241 73.7542 40.2726 67.5345 41.3235C61.4392 42.3356 56.8601 45.4942 53.7973 50.7992C51.1173 55.441 50.9728 60.9941 53.3639 67.4585C55.8028 73.84 61.6285 82.3979 70.8411 93.1323C80.1016 103.784 87.1041 113.574 91.8485 122.502C103.404 144.204 103.462 164.96 92.0245 184.771C82.8839 200.603 70.1946 209.855 53.9564 212.526C37.7182 215.198 19.9933 210.988 0.781672 199.896L19.7329 167.071C26.3919 170.916 32.5202 172.41 38.1179 171.552C43.84 170.656 48.3282 167.39 51.5825 161.753Z" fill="url(#paint0_linear_1645_7878)" fill-opacity="0.1"/>
<defs>
<linearGradient id="paint0_linear_1645_7878" x1="1.31937" y1="76.2031" x2="184.787" y2="182.128" gradientUnits="userSpaceOnUse">
<stop stop-color="#3BB969"/>
<stop offset="1" stop-color="#8CC641"/>
</linearGradient>
</defs>
</svg>
