<svg width="11" height="14" viewBox="0 0 11 14" fill="none" xmlns="http://www.w3.org/2000/svg">
    <path fill-rule="evenodd" clip-rule="evenodd" d="M3.33741 2.35824C3.26306 2.47491 3.20473 2.67205 3.20473 2.90807V8.94283C3.20473 9.12067 3.13721 9.29122 3.01701 9.41697C2.8968 9.54272 2.73378 9.61336 2.56379 9.61336C2.3938 9.61336 2.23077 9.54272 2.11057 9.41697C1.99037 9.29122 1.92284 9.12067 1.92284 8.94283V6.93125C1.92284 6.69522 1.86516 6.49808 1.79016 6.38141C1.72863 6.28419 1.67479 6.26072 1.60237 6.26072C1.53058 6.26072 1.4761 6.28419 1.41457 6.38141C1.34022 6.49808 1.28189 6.69522 1.28189 6.93125V9.61336C1.28189 10.306 1.73056 11.0483 2.59904 11.6538C3.45278 12.2499 4.61097 12.6307 5.76852 12.6307C8.11952 12.6307 9.6142 11.1227 9.6142 9.61336V6.93125C9.6142 6.69522 9.55652 6.49808 9.48153 6.38141C9.42 6.28419 9.36616 6.26072 9.29373 6.26072C9.22194 6.26072 9.16746 6.28419 9.10593 6.38141C9.03158 6.49808 8.97326 6.69522 8.97326 6.93125C8.97326 7.10908 8.90573 7.27963 8.78553 7.40538C8.66533 7.53113 8.5023 7.60178 8.33231 7.60178C8.16232 7.60178 7.99929 7.53113 7.87909 7.40538C7.75889 7.27963 7.69136 7.10908 7.69136 6.93125V6.26072C7.69136 6.02469 7.63368 5.82756 7.55869 5.71088C7.49716 5.61366 7.44332 5.59019 7.37089 5.59019C7.2991 5.59019 7.24462 5.61366 7.18309 5.71088C7.10874 5.82756 7.05042 6.02469 7.05042 6.26072V6.59598C7.05042 6.77382 6.98289 6.94437 6.86269 7.07012C6.74249 7.19587 6.57946 7.26651 6.40947 7.26651C6.23948 7.26651 6.07645 7.19587 5.95625 7.07012C5.83605 6.94437 5.76852 6.77382 5.76852 6.59598V5.92545C5.76852 5.68943 5.71084 5.49229 5.63585 5.37562C5.57432 5.27839 5.52048 5.25492 5.44805 5.25492C5.37626 5.25492 5.32178 5.27839 5.26025 5.37562C5.1859 5.49229 5.12758 5.68943 5.12758 5.92545V6.26072C5.12758 6.43855 5.06005 6.6091 4.93985 6.73485C4.81965 6.8606 4.65662 6.93125 4.48663 6.93125C4.31664 6.93125 4.15361 6.8606 4.03341 6.73485C3.91321 6.6091 3.84568 6.43855 3.84568 6.26072V2.90807C3.84568 2.67205 3.788 2.47491 3.71301 2.35824C3.65147 2.26101 3.59764 2.23754 3.52521 2.23754C3.45342 2.23754 3.39894 2.26101 3.33741 2.35824ZM5.12758 3.94873V2.90807C5.12758 2.47357 5.02502 2.00018 4.77954 1.61395C4.5206 1.20828 4.09373 0.896484 3.52521 0.896484C2.95605 0.896484 2.52982 1.20828 2.27088 1.61395C2.02475 2.00018 1.92284 2.47357 1.92284 2.90807V4.95453C1.81749 4.93111 1.71007 4.91942 1.60237 4.91966C1.03321 4.91966 0.606977 5.23145 0.348034 5.63713C0.101911 6.02335 0 6.49674 0 6.93125V9.61336C0 10.9323 0.833231 12.034 1.88759 12.7695C2.95605 13.5145 4.36228 13.9718 5.76852 13.9718C8.5451 13.9718 10.8961 12.1272 10.8961 9.61336V6.93125C10.8961 6.49674 10.7935 6.02335 10.5481 5.63713C10.2891 5.23145 9.86225 4.91966 9.29373 4.91966C9.08159 4.9182 8.87167 4.96487 8.67842 5.05645C8.66147 5.026 8.64374 4.99603 8.62522 4.9666C8.36628 4.56093 7.93941 4.24913 7.37089 4.24913C7.07029 4.24913 6.80942 4.3363 6.59278 4.47711C6.45443 4.29958 6.27976 4.15681 6.08163 4.05932C5.88351 3.96184 5.66699 3.91213 5.44805 3.91387C5.33588 3.91387 5.22885 3.92594 5.12758 3.94873Z" fill="#6F6C8F"/>
    </svg>
    